<svg width="31" height="31" viewBox="0 0 31 31" fill="none" xmlns="http://www.w3.org/2000/svg">
<path d="M28.9333 0.583374H2.23325C1.79564 0.583374 1.37596 0.757213 1.06653 1.06665C0.757091 1.37608 0.583252 1.79577 0.583252 2.23337V28.9334C0.583252 29.1501 0.625931 29.3646 0.708851 29.5648C0.791771 29.765 0.913309 29.9469 1.06653 30.1001C1.21974 30.2533 1.40164 30.3749 1.60182 30.4578C1.80201 30.5407 2.01657 30.5834 2.23325 30.5834H16.6033V18.9584H12.7033V14.4584H16.6033V11.0834C16.5225 10.291 16.616 9.49056 16.8773 8.73818C17.1386 7.9858 17.5614 7.29969 18.1159 6.72799C18.6705 6.15629 19.3434 5.71284 20.0875 5.42873C20.8316 5.14463 21.6288 5.02675 22.4233 5.08337C23.5907 5.07619 24.7577 5.13629 25.9183 5.26337V9.31337H23.5333C21.6433 9.31337 21.2833 10.2134 21.2833 11.5184V14.4134H25.7833L25.1983 18.9134H21.2833V30.5834H28.9333C29.1499 30.5834 29.3645 30.5407 29.5647 30.4578C29.7649 30.3749 29.9468 30.2533 30.1 30.1001C30.2532 29.9469 30.3747 29.765 30.4577 29.5648C30.5406 29.3646 30.5833 29.1501 30.5833 28.9334V2.23337C30.5833 2.01669 30.5406 1.80213 30.4577 1.60195C30.3747 1.40176 30.2532 1.21986 30.1 1.06665C29.9468 0.913431 29.7649 0.791893 29.5647 0.708973C29.3645 0.626053 29.1499 0.583374 28.9333 0.583374Z" fill="black"/>
</svg>
