<svg width="45" height="48" viewBox="0 0 45 48" fill="none" xmlns="http://www.w3.org/2000/svg">
<path d="M16.25 40.5C15.5083 40.5 14.7833 40.7199 14.1666 41.132C13.5499 41.544 13.0693 42.1297 12.7855 42.8149C12.5016 43.5002 12.4274 44.2542 12.5721 44.9816C12.7167 45.709 13.0739 46.3772 13.5983 46.9016C14.1228 47.4261 14.791 47.7833 15.5184 47.9279C16.2458 48.0726 16.9998 47.9984 17.6851 47.7145C18.3703 47.4307 18.956 46.9501 19.368 46.3334C19.7801 45.7167 20 44.9917 20 44.25C20 43.2554 19.6049 42.3016 18.9017 41.5984C18.1984 40.8951 17.2446 40.5 16.25 40.5ZM42.5 33H12.5C11.837 33 11.2011 32.7366 10.7322 32.2678C10.2634 31.7989 10 31.163 10 30.5C10 29.837 10.2634 29.2011 10.7322 28.7322C11.2011 28.2634 11.837 28 12.5 28H33.728C35.3566 27.9948 36.9396 27.4619 38.2398 26.4812C39.54 25.5006 40.4874 24.125 40.94 22.5605L44.9036 8.68725C45.0099 8.31518 45.0284 7.9235 44.9577 7.54306C44.8869 7.16262 44.7288 6.80379 44.4958 6.49483C44.2628 6.18587 43.9613 5.93521 43.615 5.76258C43.2686 5.58995 42.887 5.50006 42.5 5.5H11.8477C11.3301 4.0434 10.3761 2.78177 9.11556 1.88703C7.85502 0.992295 6.34927 0.507952 4.80348 0.5H2.5C1.83696 0.5 1.20107 0.763392 0.732233 1.23223C0.263392 1.70107 0 2.33696 0 3C0 3.66304 0.263392 4.29893 0.732233 4.76777C1.20107 5.23661 1.83696 5.5 2.5 5.5H4.80348C5.34618 5.5019 5.87367 5.67954 6.30697 6.00633C6.74026 6.33311 7.05604 6.79147 7.20703 7.31275L7.59583 8.6746L7.59642 8.68725L11.698 23.0427C9.7894 23.248 8.03218 24.1774 6.78816 25.6393C5.54414 27.1013 4.90804 28.9846 5.01082 30.9014C5.1136 32.8183 5.94744 34.6228 7.34066 35.9433C8.73387 37.2639 10.5804 37.9999 12.5 38H42.5C43.163 38 43.7989 37.7366 44.2678 37.2678C44.7366 36.7989 45 36.163 45 35.5C45 34.837 44.7366 34.2011 44.2678 33.7322C43.7989 33.2634 43.163 33 42.5 33ZM39.1858 10.5L36.1328 21.186C35.982 21.7077 35.6661 22.1665 35.2325 22.4936C34.799 22.8206 34.2711 22.9983 33.728 23H16.886L16.2486 20.7695L13.316 10.5H39.1858ZM36.25 40.5C35.5083 40.5 34.7833 40.7199 34.1666 41.132C33.5499 41.544 33.0693 42.1297 32.7855 42.8149C32.5016 43.5002 32.4274 44.2542 32.5721 44.9816C32.7167 45.709 33.0739 46.3772 33.5983 46.9016C34.1228 47.4261 34.791 47.7833 35.5184 47.9279C36.2458 48.0726 36.9998 47.9984 37.6851 47.7145C38.3703 47.4307 38.956 46.9501 39.368 46.3334C39.7801 45.7167 40 44.9917 40 44.25C40 43.2554 39.6049 42.3016 38.9016 41.5984C38.1984 40.8951 37.2446 40.5 36.25 40.5Z" fill="black"/>
</svg>
