<svg width="46" height="46" viewBox="0 0 46 46" fill="none" xmlns="http://www.w3.org/2000/svg">
<path d="M44.775 41.225L36.275 32.75C39.0175 29.2561 40.5055 24.9416 40.5 20.5C40.5 16.5444 39.327 12.6776 37.1294 9.3886C34.9318 6.09962 31.8082 3.53617 28.1537 2.02242C24.4992 0.508666 20.4778 0.112599 16.5982 0.884303C12.7186 1.65601 9.15492 3.56082 6.35787 6.35787C3.56082 9.15492 1.65601 12.7186 0.884303 16.5982C0.112599 20.4778 0.508666 24.4992 2.02242 28.1537C3.53617 31.8082 6.09962 34.9318 9.3886 37.1294C12.6776 39.327 16.5444 40.5 20.5 40.5C24.9416 40.5055 29.2561 39.0175 32.75 36.275L41.225 44.775C41.4574 45.0093 41.7339 45.1953 42.0386 45.3222C42.3432 45.4492 42.67 45.5145 43 45.5145C43.33 45.5145 43.6568 45.4492 43.9615 45.3222C44.2661 45.1953 44.5426 45.0093 44.775 44.775C45.0093 44.5426 45.1953 44.2661 45.3222 43.9615C45.4492 43.6568 45.5145 43.33 45.5145 43C45.5145 42.67 45.4492 42.3432 45.3222 42.0386C45.1953 41.7339 45.0093 41.4574 44.775 41.225ZM5.50001 20.5C5.50001 17.5333 6.37974 14.6332 8.02796 12.1665C9.67619 9.69972 12.0189 7.77713 14.7598 6.64182C17.5006 5.5065 20.5166 5.20945 23.4264 5.78823C26.3361 6.36701 29.0088 7.79562 31.1066 9.89341C33.2044 11.9912 34.633 14.6639 35.2118 17.5737C35.7906 20.4834 35.4935 23.4994 34.3582 26.2403C33.2229 28.9812 31.3003 31.3238 28.8336 32.9721C26.3668 34.6203 23.4667 35.5 20.5 35.5C16.5218 35.5 12.7065 33.9197 9.89341 31.1066C7.08036 28.2936 5.50001 24.4783 5.50001 20.5Z" fill="black"/>
</svg>
