<svg width="30" height="26" viewBox="0 0 30 26" fill="none" xmlns="http://www.w3.org/2000/svg">
<path d="M27.8571 7.97788C27.8571 7.07387 27.7372 6.27588 27.4972 5.58391C27.2573 4.89195 26.9503 4.34228 26.5765 3.93492C26.2026 3.52755 25.7478 3.19552 25.2121 2.93882C24.6763 2.68213 24.1518 2.50914 23.6384 2.41985C23.125 2.33057 22.5781 2.28592 21.9978 2.28592C21.4174 2.28592 20.7924 2.42822 20.1228 2.71282C19.4531 2.99742 18.8365 3.35456 18.2729 3.78425C17.7093 4.21394 17.2266 4.61572 16.8248 4.9896C16.423 5.36349 16.0882 5.70668 15.8203 6.01918C15.6194 6.26472 15.346 6.38748 15 6.38748C14.654 6.38748 14.3806 6.26472 14.1797 6.01918C13.9118 5.70668 13.577 5.36349 13.1752 4.9896C12.7734 4.61572 12.2907 4.21394 11.7271 3.78425C11.1635 3.35456 10.5469 2.99742 9.87723 2.71282C9.20759 2.42822 8.58259 2.28592 8.00223 2.28592C7.42187 2.28592 6.875 2.33057 6.36161 2.41985C5.84821 2.50914 5.32366 2.68213 4.78795 2.93882C4.25223 3.19552 3.79743 3.52755 3.42355 3.93492C3.04967 4.34228 2.74275 4.89195 2.50279 5.58391C2.26283 6.27588 2.14286 7.07387 2.14286 7.97788C2.14286 9.85288 3.18638 11.8339 5.27344 13.921L15 23.296L24.7098 13.9377C26.808 11.8395 27.8571 9.85288 27.8571 7.97788ZM30 7.97788C30 10.4444 28.7221 12.9556 26.1663 15.5114L15.7366 25.556C15.5357 25.7569 15.2902 25.8573 15 25.8573C14.7098 25.8573 14.4643 25.7569 14.2634 25.556L3.81696 15.4779C3.70536 15.3886 3.5519 15.2435 3.35658 15.0426C3.16127 14.8417 2.85156 14.4762 2.42746 13.9461C2.00335 13.4159 1.62388 12.8719 1.28906 12.3138C0.954241 11.7558 0.655692 11.0806 0.393415 10.2882C0.131138 9.49574 0 8.72565 0 7.97788C0 5.52253 0.708705 3.60289 2.12612 2.21896C3.54353 0.83503 5.50223 0.143066 8.00223 0.143066C8.6942 0.143066 9.40011 0.263044 10.12 0.502999C10.8398 0.742955 11.5095 1.06662 12.1289 1.47398C12.7483 1.88135 13.2812 2.2636 13.7277 2.62074C14.1741 2.97789 14.5982 3.35735 15 3.75914C15.4018 3.35735 15.8259 2.97789 16.2723 2.62074C16.7187 2.2636 17.2517 1.88135 17.8711 1.47398C18.4905 1.06662 19.1602 0.742955 19.88 0.502999C20.5999 0.263044 21.3058 0.143066 21.9978 0.143066C24.4978 0.143066 26.4565 0.83503 27.8739 2.21896C29.2913 3.60289 30 5.52253 30 7.97788Z" fill="#D85B53"/>
</svg>
