<svg width="32" height="32" viewBox="0 0 32 32" fill="none" xmlns="http://www.w3.org/2000/svg">
<path fill-rule="evenodd" clip-rule="evenodd" d="M30 3.74989H27.9525C27.5909 2.72521 26.9205 1.8379 26.0335 1.21028C25.1464 0.582648 24.0866 0.245605 23 0.245605C21.9134 0.245605 20.8536 0.582648 19.9665 1.21028C19.0795 1.8379 18.4091 2.72521 18.0475 3.74989H2C1.53587 3.74989 1.09075 3.93427 0.762563 4.26246C0.434374 4.59065 0.25 5.03576 0.25 5.49989C0.25 5.96402 0.434374 6.40914 0.762563 6.73733C1.09075 7.06552 1.53587 7.24989 2 7.24989H18.0475C18.4091 8.27457 19.0795 9.16188 19.9665 9.78951C20.8536 10.4171 21.9134 10.7542 23 10.7542C24.0866 10.7542 25.1464 10.4171 26.0335 9.78951C26.9205 9.16188 27.5909 8.27457 27.9525 7.24989H30C30.4641 7.24989 30.9092 7.06552 31.2374 6.73733C31.5656 6.40914 31.75 5.96402 31.75 5.49989C31.75 5.03576 31.5656 4.59065 31.2374 4.26246C30.9092 3.93427 30.4641 3.74989 30 3.74989ZM23 7.24989C23.4641 7.24989 23.9092 7.06552 24.2374 6.73733C24.5656 6.40914 24.75 5.96402 24.75 5.49989C24.75 5.03576 24.5656 4.59065 24.2374 4.26246C23.9092 3.93427 23.4641 3.74989 23 3.74989C22.5359 3.74989 22.0908 3.93427 21.7626 4.26246C21.4344 4.59065 21.25 5.03576 21.25 5.49989C21.25 5.96402 21.4344 6.40914 21.7626 6.73733C22.0908 7.06552 22.5359 7.24989 23 7.24989ZM0.25 15.9999C0.25 15.5358 0.434374 15.0906 0.762563 14.7625C1.09075 14.4343 1.53587 14.2499 2 14.2499H4.0475C4.40905 13.2252 5.07954 12.3379 5.96655 11.7103C6.85356 11.0826 7.9134 10.7456 9 10.7456C10.0866 10.7456 11.1464 11.0826 12.0335 11.7103C12.9205 12.3379 13.5909 13.2252 13.9525 14.2499H30C30.4641 14.2499 30.9092 14.4343 31.2374 14.7625C31.5656 15.0906 31.75 15.5358 31.75 15.9999C31.75 16.464 31.5656 16.9091 31.2374 17.2373C30.9092 17.5655 30.4641 17.7499 30 17.7499H13.9525C13.5909 18.7746 12.9205 19.6619 12.0335 20.2895C11.1464 20.9171 10.0866 21.2542 9 21.2542C7.9134 21.2542 6.85356 20.9171 5.96655 20.2895C5.07954 19.6619 4.40905 18.7746 4.0475 17.7499H2C1.53587 17.7499 1.09075 17.5655 0.762563 17.2373C0.434374 16.9091 0.25 16.464 0.25 15.9999ZM9 17.7499C9.46413 17.7499 9.90925 17.5655 10.2374 17.2373C10.5656 16.9091 10.75 16.464 10.75 15.9999C10.75 15.5358 10.5656 15.0906 10.2374 14.7625C9.90925 14.4343 9.46413 14.2499 9 14.2499C8.53587 14.2499 8.09075 14.4343 7.76256 14.7625C7.43437 15.0906 7.25 15.5358 7.25 15.9999C7.25 16.464 7.43437 16.9091 7.76256 17.2373C8.09075 17.5655 8.53587 17.7499 9 17.7499ZM2 24.7499C1.53587 24.7499 1.09075 24.9343 0.762563 25.2625C0.434374 25.5906 0.25 26.0358 0.25 26.4999C0.25 26.964 0.434374 27.4091 0.762563 27.7373C1.09075 28.0655 1.53587 28.2499 2 28.2499H18.0475C18.4091 29.2746 19.0795 30.1619 19.9665 30.7895C20.8536 31.4171 21.9134 31.7542 23 31.7542C24.0866 31.7542 25.1464 31.4171 26.0335 30.7895C26.9205 30.1619 27.5909 29.2746 27.9525 28.2499H30C30.4641 28.2499 30.9092 28.0655 31.2374 27.7373C31.5656 27.4091 31.75 26.964 31.75 26.4999C31.75 26.0358 31.5656 25.5906 31.2374 25.2625C30.9092 24.9343 30.4641 24.7499 30 24.7499H27.9525C27.5909 23.7252 26.9205 22.8379 26.0335 22.2103C25.1464 21.5826 24.0866 21.2456 23 21.2456C21.9134 21.2456 20.8536 21.5826 19.9665 22.2103C19.0795 22.8379 18.4091 23.7252 18.0475 24.7499H2ZM24.75 26.4999C24.75 26.964 24.5656 27.4091 24.2374 27.7373C23.9092 28.0655 23.4641 28.2499 23 28.2499C22.5359 28.2499 22.0908 28.0655 21.7626 27.7373C21.4344 27.4091 21.25 26.964 21.25 26.4999C21.25 26.0358 21.4344 25.5906 21.7626 25.2625C22.0908 24.9343 22.5359 24.7499 23 24.7499C23.4641 24.7499 23.9092 24.9343 24.2374 25.2625C24.5656 25.5906 24.75 26.0358 24.75 26.4999Z" fill="black"/>
</svg>
